#!OML:ASF H:\LiuWeirdWalks\Patient Classification 1\Patient 1\Session 1\male.ASF
:FULLY-SPECIFIED
:DEGREES
821
root 1.76348 18.1642 40.4352 7.20091 2.59636 -3.00099
lowerback -2.46578 3.02566 6.6789
upperback -2.37917 3.93227 -0.121011
thorax -0.621825 1.88729 -3.77012
lowerneck -24.5805 -1.7663 1.10649
upperneck 28.8094 -2.33386 -1.96697
head 13.8758 -1.16094 -1.41363
rclavicle -9.31182e-015 -1.23246e-014
rhumerus -40.0389 -22.0561 -68.5554
rradius 30.5491
rwrist -4.09255
rhand -14.8366 -1.46304
rfingers 7.12502
rthumb 11.3224 -31.1374
lclavicle -9.31182e-015 -1.23246e-014
lhumerus -35.4617 -6.79463 81.5581
lradius 33.0987
lwrist 6.32795
lhand -11.0769 -2.08334
lfingers 7.12502
lthumb 14.9464 27.3574
rfemur -13.5789 -0.454276 26.0147
rtibia 26.7043
rfoot -7.73946 -14.6506
rtoes -0.571034
lfemur -12.9079 -3.57598 -16.1804
ltibia 25.3764
lfoot -6.07225 16.6819
ltoes -1.91263
822
root 1.76911 18.1638 40.4492 7.1762 2.5982 -3.05316
lowerback -2.44873 3.07788 6.82191
upperback -2.37666 4.0007 -0.15311
thorax -0.609813 1.92008 -3.88113
lowerneck -24.5516 -1.85403 1.02488
upperneck 28.8079 -2.46675 -1.85114
head 13.8695 -1.21036 -1.37775
rclavicle -2.31398e-015 -6.36111e-015
rhumerus -40.138 -22.1958 -68.5058
rradius 30.5845
rwrist -4.11804
rhand -14.8694 -1.47131
rfingers 7.12502
rthumb 11.2907 -31.1474
lclavicle -2.31398e-015 -6.36111e-015
lhumerus -35.4499 -7.00611 81.6121
lradius 33.0383
lwrist 6.32294
lhand -11.0439 -2.09909
lfingers 7.12502
lthumb 14.9782 27.3392
rfemur -13.4729 -0.415969 26.0602
rtibia 26.6485
rfoot -7.72572 -14.7087
rtoes -0.646975
lfemur -12.8647 -3.54538 -16.1489
ltibia 25.4432
lfoot -6.12017 16.6854
ltoes -2.01541
823
root 1.77479 18.1634 40.4627 7.15643 2.59954 -3.11487
lowerback -2.42967 3.01219 6.81055
upperback -2.40763 3.91638 -0.0867518
thorax -0.667696 1.87567 -3.81158
lowerneck -24.4321 -1.80132 1.09493
upperneck 28.7994 -2.41048 -1.87425
head 13.8406 -1.18192 -1.38622
rclavicle -2.99652e-014 -1.0138e-014
rhumerus -40.1349 -21.9779 -68.5711
rradius 30.5831
rwrist -4.13673
rhand -14.8927 -1.48608
rfingers 7.12502
rthumb 11.2683 -31.1634
lclavicle -2.99652e-014 -1.0138e-014
lhumerus -35.591 -6.86307 81.5939
lradius 33.0096
lwrist 6.29691
lhand -11.0164 -2.12657
lfingers 7.12502
lthumb 15.0047 27.3098
rfemur -13.3736 -0.375816 26.1162
rtibia 26.5903
rfoot -7.71045 -14.7648
rtoes -0.713035
lfemur -12.8313 -3.50256 -16.1063
ltibia 25.5161
lfoot -6.16951 16.674
ltoes -2.13168
824
root 1.78058 18.1631 40.476 7.14965 2.59368 -3.17691
lowerback -2.42195 2.89584 6.72394
upperback -2.45714 3.76582 0.0226097
thorax -0.753012 1.79805 -3.65795
lowerneck -24.2809 -1.68677 1.22888
upperneck 28.802 -2.27054 -1.95544
head 13.8098 -1.11866 -1.41298
rclavicle -1.01924e-014 -2.39536e-014
rhumerus -40.0905 -21.6055 -68.6819
rradius 30.5615
rwrist -4.12732
rhand -14.9013 -1.49528
rfingers 7.12502
rthumb 11.26 -31.1731
lclavicle -1.01924e-014 -2.39536e-014
lhumerus -35.8005 -6.56274 81.5428
lradius 32.9916
lwrist 6.25845
lhand -10.9923 -2.15799
lfingers 7.12502
lthumb 15.0279 27.2766
rfemur -13.2911 -0.3291 26.1708
rtibia 26.5332
rfoot -7.69787 -14.8163
rtoes -0.771834
lfemur -12.811 -3.46212 -16.0634
ltibia 25.5902
lfoot -6.21648 16.6707
ltoes -2.24953
825
root 1.78631 18.1627 40.4894 7.1505 2.58396 -3.23816
lowerback -2.42932 2.81517 6.67862
upperback -2.49168 3.6603 0.105204
thorax -0.804384 1.74387 -3.55181
lowerneck -24.186 -1.61102 1.32109
upperneck 28.8267 -2.18406 -1.99545
head 13.8005 -1.07672 -1.42757
rclavicle -5.6576e-015 -4.37326e-015
rhumerus -40.0516 -21.3234 -68.7705
rradius 30.5359
rwrist -4.13173
rhand -14.9131 -1.48519
rfingers 7.12502
rthumb 11.2486 -31.1636
lclavicle -5.6576e-015 -4.37326e-015
lhumerus -35.9424 -6.35953 81.5115
lradius 32.9638
lwrist 6.25197
lhand -10.9664 -2.17387
lfingers 7.12502
lthumb 15.0528 27.2589
rfemur -13.2205 -0.278601 26.2238
rtibia 26.4795
rfoot -7.68553 -14.8645
rtoes -0.830053
lfemur -12.7959 -3.44079 -16.0199
ltibia 25.6591
lfoot -6.26662 16.6864
ltoes -2.34342
826
root 1.79187 18.1623 40.5029 7.15551 2.57285 -3.30001
lowerback -2.45349 2.77017 6.67584
upperback -2.50705 3.59941 0.162419
thorax -0.817259 1.71304 -3.49247
lowerneck -24.153 -1.57371 1.36887
upperneck 28.8665 -2.14948 -1.99524
head 13.8108 -1.05603 -1.42948
rclavicle -2.78003e-014 -6.75868e-015
rhumerus -40.0136 -21.1442 -68.8313
rradius 30.5073
rwrist -4.12597
rhand -14.9151 -1.47792
rfingers 7.12502
rthumb 11.2466 -31.1564
lclavicle -2.78003e-014 -6.75868e-015
lhumerus -36.0112 -6.24354 81.4996
lradius 32.9246
lwrist 6.25616
lhand -10.9433 -2.18172
lfingers 7.12502
lthumb 15.0751 27.2494
rfemur -13.1578 -0.222678 26.2773
rtibia 26.4311
rfoot -7.67792 -14.9144
rtoes -0.886024
lfemur -12.7799 -3.43179 -15.9741
ltibia 25.719
lfoot -6.31166 16.7129
ltoes -2.41926
827
root 1.79725 18.1616 40.5165 7.14879 2.55956 -3.35566
lowerback -2.47267 2.62623 6.52413
upperback -2.52821 3.41011 0.302831
thorax -0.865383 1.61935 -3.26908
lowerneck -24.0859 -1.41501 1.54989
upperneck 28.9044 -1.94888 -2.12389
head 13.8136 -0.967647 -1.47429
rclavicle -1.66513e-014 -4.22417e-014
rhumerus -39.8632 -20.6997 -68.9791
rradius 30.4436
rwrist -4.08654
rhand -14.9043 -1.4833
rfingers 7.12502
rthumb 11.257 -31.1612
lclavicle -1.66513e-014 -4.22417e-014
lhumerus -36.1684 -5.79373 81.4182
lradius 32.9026
lwrist 6.21117
lhand -10.9262 -2.20232
lfingers 7.12502
lthumb 15.0916 27.2275
rfemur -13.086 -0.165754 26.324
rtibia 26.3921
rfoot -7.67892 -14.9652
rtoes -0.945579
lfemur -12.7361 -3.43559 -15.9352
ltibia 25.7506
lfoot -6.34576 16.7495
ltoes -2.47428
828
root 1.8024 18.1608 40.5302 7.13736 2.54698 -3.4073
lowerback -2.49171 2.46757 6.34252
upperback -2.54974 3.20188 0.456683
thorax -0.91616 1.51682 -3.0156
lowerneck -24.0024 -1.23758 1.75628
upperneck 28.9302 -1.72191 -2.27876
head 13.8087 -0.868913 -1.52869
rclavicle 3.10508e-014 1.70955e-014
rhumerus -39.6979 -20.2128 -69.1364
rradius 30.3733
rwrist -4.04755
rhand -14.897 -1.49968
rfingers 7.12502
rthumb 11.2641 -31.1772
lclavicle 3.10508e-014 1.70955e-014
lhumerus -36.3405 -5.27733 81.321
lradius 32.8891
lwrist 6.15508
lhand -10.9146 -2.21255
lfingers 7.12502
lthumb 15.1027 27.2165
rfemur -13.0106 -0.110961 26.3668
rtibia 26.358
rfoot -7.68595 -15.0128
rtoes -1.00561
lfemur -12.6769 -3.45114 -15.9005
ltibia 25.7614
lfoot -6.36786 16.7951
ltoes -2.5153
829
root 1.8092 18.1591 40.5454 7.00406 2.481 -3.37567
lowerback -2.40651 2.44315 6.27505
upperback -2.50216 3.17499 0.479538
thorax -0.921795 1.5053 -2.95795
lowerneck -24.0131 -1.20827 1.80323
upperneck 28.9659 -1.69944 -2.27718
head 13.8263 -0.853343 -1.53277
rclavicle 1.23868e-014 -1.2921e-014
rhumerus -39.642 -20.1059 -69.1743
rradius 30.3435
rwrist -4.00338
rhand -14.8892 -1.54556
rfingers 7.12502
rthumb 11.2716 -31.2227
lclavicle 1.23868e-014 -1.2921e-014
lhumerus -36.3561 -5.13149 81.2959
lradius 32.8548
lwrist 6.12559
lhand -10.9014 -2.20646
lfingers 7.12502
lthumb 15.1154 27.2216
rfemur -12.7873 -0.0650692 26.3065
rtibia 26.3282
rfoot -7.72684 -15.0225
rtoes -1.05421
lfemur -12.4455 -3.49224 -15.9807
ltibia 25.7519
lfoot -6.39807 16.9078
ltoes -2.55159
830
root 1.81542 18.1574 40.5601 6.88009 2.42828 -3.36169
lowerback -2.33144 2.58977 6.4612
upperback -2.4281 3.36956 0.363093
thorax -0.85182 1.6029 -3.17721
lowerneck -24.1382 -1.38554 1.627
upperneck 29.0171 -1.9623 -2.05645
head 13.8725 -0.953657 -1.46592
rclavicle 2.02885e-014 1.73937e-014
rhumerus -39.7509 -20.5021 -69.0524
rradius 30.3673
rwrist -3.9787
rhand -14.8958 -1.60328
rfingers 7.12502
rthumb 11.2653 -31.2808
lclavicle 2.02885e-014 1.73937e-014
lhumerus -36.175 -5.50804 81.3732
lradius 32.7876
lwrist 6.14384
lhand -10.883 -2.17789
lfingers 7.12502
lthumb 15.1332 27.2488
rfemur -12.5761 -0.0173338 26.2687
rtibia 26.2973
rfoot -7.77071 -15.0419
rtoes -1.09389
lfemur -12.2312 -3.51228 -16.0385
ltibia 25.7417
lfoot -6.42278 16.9938
ltoes -2.60849
